<svg width="24" height="24" viewBox="0 0 24 24" fill="none" xmlns="http://www.w3.org/2000/svg">
<path d="M0 13.2642C0 13.4663 0.0738841 13.6305 0.209338 13.7694C0.344792 13.9083 0.517188 13.9715 0.701899 13.9715H4.37147C4.54387 13.9715 4.70395 13.921 4.83941 13.8073C4.97486 13.6936 5.04874 13.5547 5.08569 13.3779L6.19395 6.72167L8.18881 23.3685C8.21344 23.5453 8.29964 23.6969 8.42278 23.8232C8.54592 23.9368 8.69369 24 8.86609 24C9.0508 24 9.21088 23.9368 9.33402 23.8232C9.45716 23.7095 9.54335 23.5579 9.5803 23.3685L11.1195 11.1549L12.4002 14.6914C12.4495 14.8304 12.5233 14.944 12.6465 15.0324C12.7696 15.1209 12.8928 15.1587 13.0405 15.1587H13.1021C13.2499 15.1461 13.3853 15.0956 13.4962 14.9946C13.6193 14.8935 13.6932 14.7672 13.7301 14.603L15.6142 5.93859L16.4885 22.5854C16.5008 22.7622 16.5623 22.9264 16.6732 23.0527C16.784 23.179 16.9318 23.2548 17.1165 23.2674C17.2889 23.2801 17.4489 23.2422 17.5844 23.1411C17.7189 23.0384 17.8146 22.8912 17.8553 22.7243L19.8871 13.9589H23.2981C23.4951 13.9589 23.6552 13.8957 23.7907 13.7568C23.9261 13.6178 24 13.4537 24 13.2516C24 13.0495 23.9261 12.8853 23.7907 12.7464C23.7267 12.6787 23.6501 12.6249 23.5655 12.588C23.4809 12.5511 23.39 12.532 23.2981 12.5316H19.3207C19.1606 12.5316 19.0128 12.5822 18.8897 12.6832C18.7665 12.7842 18.6803 12.9105 18.6434 13.0747L17.6213 17.5459L16.7347 0.67173C16.727 0.496487 16.6569 0.330234 16.5377 0.204407C16.481 0.141686 16.4125 0.0914326 16.3363 0.0566945C16.2601 0.0219564 16.1778 0.00345812 16.0944 0.00232105C15.922 -0.0103093 15.7619 0.0275813 15.6142 0.141255C15.4664 0.254928 15.3802 0.393862 15.3433 0.570687L12.8805 11.9001L11.452 7.90893C11.4028 7.75736 11.3043 7.64369 11.1565 7.55527C11.0087 7.46686 10.861 7.42897 10.7132 7.45423C10.5531 7.46686 10.4177 7.54264 10.3068 7.65632C10.196 7.76999 10.1221 7.92156 10.0975 8.08575L8.89071 17.5711L7.00667 1.70742C6.97691 1.53814 6.89489 1.38317 6.7727 1.26536C6.65041 1.15206 6.49395 1.08519 6.3294 1.0759C6.16009 1.06166 5.99209 1.11607 5.86147 1.22747C5.72601 1.34114 5.63982 1.48007 5.61519 1.66953L3.79271 12.5443H0.701899C0.504875 12.5443 0.344792 12.62 0.209338 12.759C0.0738841 12.8979 0 13.0621 0 13.2642Z" fill="#1B2227"/>
</svg>
