<svg width="16" height="20" viewBox="0 0 16 20" fill="none" xmlns="http://www.w3.org/2000/svg">
<path d="M8 0C11.31 0 14 2.53333 14 5.66667C14 9.91429 8 16.1905 8 16.1905C8 16.1905 2 9.91429 2 5.66667C2 2.53333 4.69 0 8 0ZM8 3.80952C7.46957 3.80952 6.96086 4.0102 6.58579 4.36742C6.21071 4.72463 6 5.20911 6 5.71429C6 6.21946 6.21071 6.70394 6.58579 7.06116C6.96086 7.41837 7.46957 7.61905 8 7.61905C8.53043 7.61905 9.03914 7.41837 9.41421 7.06116C9.78929 6.70394 10 6.21946 10 5.71429C10 5.20911 9.78929 4.72463 9.41421 4.36742C9.03914 4.0102 8.53043 3.80952 8 3.80952ZM16 16.1905C16 18.2952 12.42 20 8 20C3.58 20 0 18.2952 0 16.1905C0 14.9619 1.22 13.8667 3.11 13.1714L3.75 14.0381C2.67 14.4667 2 15.0571 2 15.7143C2 17.0286 4.69 18.0952 8 18.0952C11.31 18.0952 14 17.0286 14 15.7143C14 15.0571 13.33 14.4667 12.25 14.0381L12.89 13.1714C14.78 13.8667 16 14.9619 16 16.1905Z" fill="#1B2227"/>
</svg>
