<svg width="16" height="20" viewBox="0 0 16 20" fill="none" xmlns="http://www.w3.org/2000/svg">
<path d="M8 1.90476C10.2 1.90476 12 3.61905 12 5.71429C12 7.71429 9.9 10.9524 8 13.2381C6.1 10.8571 4 7.71429 4 5.71429C4 3.61905 5.8 1.90476 8 1.90476ZM8 0C4.7 0 2 2.57143 2 5.71429C2 10 8 16.1905 8 16.1905C8 16.1905 14 9.90476 14 5.71429C14 2.57143 11.3 0 8 0ZM8 3.80952C6.9 3.80952 6 4.66667 6 5.71429C6 6.7619 6.9 7.61905 8 7.61905C9.1 7.61905 10 6.7619 10 5.71429C10 4.66667 9.1 3.80952 8 3.80952ZM16 16.1905C16 18.2857 12.4 20 8 20C3.6 20 0 18.2857 0 16.1905C0 14.9524 1.2 13.9048 3.1 13.1429L3.7 14C2.7 14.4762 2 15.0476 2 15.7143C2 17.0476 4.7 18.0952 8 18.0952C11.3 18.0952 14 17.0476 14 15.7143C14 15.0476 13.3 14.4762 12.2 14L12.8 13.1429C14.8 13.9048 16 14.9524 16 16.1905Z" fill="#727272"/>
</svg>
