<svg width="16" height="20" viewBox="0 0 16 20" fill="none" xmlns="http://www.w3.org/2000/svg">
<path d="M16 9.09091C16 14.1364 12.5867 18.8545 8 20C3.41333 18.8545 0 14.1364 0 9.09091V3.63636L8 0L16 3.63636V9.09091ZM8 18.1818C11.3333 17.2727 14.2222 13.2182 14.2222 9.29091V4.81818L8 1.98182L1.77778 4.81818V9.29091C1.77778 13.2182 4.66667 17.2727 8 18.1818Z" fill="#727272"/>
<path d="M14 9.5L12.8 9.85L12.2 10.2L11.6 9.85L11 10.9L10.4 9.85L9.8 12.65L9.2 9.85L8.6 10.55L8 9.85L7.4 11.25L6.8 9.85L6.2 13L5.6 9.85L5 11.95L4.4 9.85L3.8 10.2L3.2 9.85L2 9.5L3.2 9.15L3.8 8.8L4.4 9.15L5 7.05L5.6 9.15L6.2 6L6.8 9.15L7.4 7.75L8 9.15L8.6 8.45L9.2 9.15L9.8 6.35L10.4 9.15L11 8.1L11.6 9.15L12.2 8.8L12.8 9.15L14 9.5Z" fill="#727272"/>
</svg>
