<svg width="85" height="90" viewBox="0 0 85 90" fill="none" xmlns="http://www.w3.org/2000/svg">
<g filter="url(#filter0_d_2859_4537)">
<mask id="mask0_2859_4537" style="mask-type:alpha" maskUnits="userSpaceOnUse" x="0" y="0" width="81" height="82">
<rect width="81" height="82" rx="24" fill="white"/>
</mask>
<g mask="url(#mask0_2859_4537)">
<g filter="url(#filter1_d_2859_4537)">
<path fill-rule="evenodd" clip-rule="evenodd" d="M51.2468 5.00806C50.3514 5.06503 49.5022 5.42206 48.8386 6.02051L8 42.8111H13.9318L51.5 10.8783C51.5 10.8783 53.4773 12.8378 89.0682 42.8111H95L54.1614 6.02051L53.766 5.707C53.0306 5.19756 52.1422 4.95108 51.2468 5.00806ZM19.8636 42.8111V78.0811C19.836 79.0005 19.8636 81.4184 19.8913 82H23.8182H37.6591L50.5114 68.2839L35.6818 54.5678L55.4545 42.8111L45.5682 34.9733L57.4318 23.2166L55.4545 34.9733L65.3409 42.8111L49.5227 54.5678L63.3636 66.3244L53.4773 82H79.1818C80.1405 82 81.9656 82 83.1364 81.9726V78.0811V42.8111C71.2727 32.4322 51.5 16.7567 51.5 16.7567C51.5 16.7567 43.5909 22.635 19.8636 42.8111Z" fill="#1B2227"/>
</g>
</g>
</g>
<defs>
<filter id="filter0_d_2859_4537" x="4" y="5" width="81" height="85" filterUnits="userSpaceOnUse" color-interpolation-filters="sRGB">
<feFlood flood-opacity="0" result="BackgroundImageFix"/>
<feColorMatrix in="SourceAlpha" type="matrix" values="0 0 0 0 0 0 0 0 0 0 0 0 0 0 0 0 0 0 127 0" result="hardAlpha"/>
<feOffset dy="4"/>
<feGaussianBlur stdDeviation="2"/>
<feComposite in2="hardAlpha" operator="out"/>
<feColorMatrix type="matrix" values="0 0 0 0 0 0 0 0 0 0 0 0 0 0 0 0 0 0 0.25 0"/>
<feBlend mode="normal" in2="BackgroundImageFix" result="effect1_dropShadow_2859_4537"/>
<feBlend mode="normal" in="SourceGraphic" in2="effect1_dropShadow_2859_4537" result="shape"/>
</filter>
<filter id="filter1_d_2859_4537" x="5" y="2" width="103" height="93" filterUnits="userSpaceOnUse" color-interpolation-filters="sRGB">
<feFlood flood-opacity="0" result="BackgroundImageFix"/>
<feColorMatrix in="SourceAlpha" type="matrix" values="0 0 0 0 0 0 0 0 0 0 0 0 0 0 0 0 0 0 127 0" result="hardAlpha"/>
<feOffset dx="5" dy="5"/>
<feGaussianBlur stdDeviation="4"/>
<feComposite in2="hardAlpha" operator="out"/>
<feColorMatrix type="matrix" values="0 0 0 0 0 0 0 0 0 0 0 0 0 0 0 0 0 0 0.25 0"/>
<feBlend mode="normal" in2="BackgroundImageFix" result="effect1_dropShadow_2859_4537"/>
<feBlend mode="normal" in="SourceGraphic" in2="effect1_dropShadow_2859_4537" result="shape"/>
</filter>
</defs>
</svg>
