<svg width="14" height="19" viewBox="0 0 14 19" fill="none" xmlns="http://www.w3.org/2000/svg">
<path d="M7 9.025C6.33696 9.025 5.70107 8.77478 5.23223 8.32938C4.76339 7.88398 4.5 7.27989 4.5 6.65C4.5 6.02011 4.76339 5.41602 5.23223 4.97062C5.70107 4.52522 6.33696 4.275 7 4.275C7.66304 4.275 8.29893 4.52522 8.76777 4.97062C9.23661 5.41602 9.5 6.02011 9.5 6.65C9.5 6.96189 9.43534 7.27073 9.3097 7.55887C9.18406 7.84702 8.99991 8.10884 8.76777 8.32938C8.53562 8.54992 8.26002 8.72486 7.95671 8.84421C7.6534 8.96357 7.3283 9.025 7 9.025ZM7 0C5.14348 0 3.36301 0.700623 2.05025 1.94774C0.737498 3.19486 0 4.88631 0 6.65C0 11.6375 7 19 7 19C7 19 14 11.6375 14 6.65C14 4.88631 13.2625 3.19486 11.9497 1.94774C10.637 0.700623 8.85652 0 7 0Z" fill="#EB5D00"/>
<ellipse cx="7" cy="6.64999" rx="3" ry="2.85" fill="white"/>
</svg>
