<svg width="16" height="20" viewBox="0 0 16 20" fill="none" xmlns="http://www.w3.org/2000/svg">
<path d="M8.00003 20C4.75987 20 2.13336 17.408 2.13336 14.2105C2.13336 11.013 4.75987 8.42102 8.00003 8.42102C11.2402 8.42102 13.8667 11.013 13.8667 14.2105C13.8667 17.408 11.2402 20 8.00003 20ZM7.41336 13.6315V17.1052H8.5867V13.6315H7.41336ZM7.41336 11.3158V12.4737H8.5867V11.3158H7.41336Z" fill="#1B2227"/>
<path d="M2.344 0C1.59998 0.724871 1.00989 1.58624 0.607632 2.53463C0.205373 3.48301 -0.00112459 4.49971 4.60616e-06 5.52632C4.60616e-06 7.68369 0.896004 9.63783 2.344 11.0526L3.472 9.95049C2.87565 9.37093 2.40308 8.68139 2.08172 7.92191C1.76036 7.16243 1.59662 6.34814 1.6 5.52632C1.6 3.79885 2.312 2.22772 3.472 1.10214L2.344 0ZM13.656 0L12.528 1.10214C13.1237 1.68214 13.5959 2.37176 13.9172 3.13114C14.2385 3.89052 14.4026 4.7046 14.4 5.52632C14.4 7.26159 13.688 8.82491 12.528 9.95049L13.656 11.0526C14.4 10.3278 14.9901 9.46638 15.3924 8.518C15.7946 7.56962 16.0011 6.55292 16 5.52632C16 3.36894 15.104 1.4148 13.656 0ZM4.608 2.21209C4.16144 2.64666 3.80717 3.16317 3.56554 3.73193C3.32391 4.30069 3.19969 4.9105 3.2 5.52632C3.2 6.81605 3.736 7.98853 4.608 8.84054L5.736 7.7384C5.43858 7.44808 5.20278 7.10321 5.04215 6.72359C4.88153 6.34397 4.79924 5.93709 4.8 5.52632C4.8 4.65868 5.16 3.87702 5.736 3.31423L4.608 2.21209ZM11.392 2.21209L10.264 3.31423C10.5614 3.60455 10.7972 3.94942 10.9578 4.32904C11.1185 4.70866 11.2008 5.11554 11.2 5.52632C11.2 6.39395 10.84 7.17561 10.264 7.7384L11.392 8.84054C11.8386 8.40597 12.1928 7.88946 12.4345 7.3207C12.6761 6.75194 12.8003 6.14213 12.8 5.52632C12.8 4.23658 12.264 3.0641 11.392 2.21209ZM8 3.963C7.57565 3.963 7.16869 4.12771 6.86863 4.42089C6.56857 4.71406 6.4 5.1117 6.4 5.52632C6.4 5.94093 6.56857 6.33857 6.86863 6.63174C7.16869 6.92492 7.57565 7.08963 8 7.08963C8.42435 7.08963 8.83131 6.92492 9.13137 6.63174C9.43143 6.33857 9.6 5.94093 9.6 5.52632C9.6 5.1117 9.43143 4.71406 9.13137 4.42089C8.83131 4.12771 8.42435 3.963 8 3.963Z" fill="#1B2227"/>
</svg>
