<svg width="20" height="15" viewBox="0 0 20 15" fill="none" xmlns="http://www.w3.org/2000/svg">
<path d="M2.93001 0C1.99998 0.927352 1.26236 2.02934 0.759541 3.24264C0.256716 4.45594 -0.00140574 5.75664 5.7577e-06 7.07C5.7577e-06 9.83 1.12001 12.33 2.93001 14.14L4.34001 12.73C3.59457 11.9885 3.00385 11.1064 2.60215 10.1348C2.20045 9.16314 1.99577 8.12139 2.00001 7.07C2.00001 4.86 2.89001 2.85 4.34001 1.41L2.93001 0ZM17.07 0L15.66 1.41C16.4047 2.15202 16.9949 3.03428 17.3965 4.00578C17.7982 4.97728 18.0033 6.01875 18 7.07C18 9.29 17.11 11.29 15.66 12.73L17.07 14.14C18 13.2126 18.7376 12.1107 19.2405 10.8974C19.7433 9.68406 20.0014 8.38336 20 7.07C20 4.31 18.88 1.81 17.07 0ZM5.76001 2.83C5.20181 3.38596 4.75896 4.04675 4.45693 4.77438C4.15489 5.50202 3.99961 6.28217 4.00001 7.07C4.00001 8.72 4.67001 10.22 5.76001 11.31L7.17001 9.9C6.79822 9.52858 6.50348 9.08737 6.3027 8.60172C6.10191 8.11606 5.99905 7.59552 6.00001 7.07C6.00001 5.96 6.45001 4.96 7.17001 4.24L5.76001 2.83ZM14.24 2.83L12.83 4.24C13.2018 4.61142 13.4965 5.05263 13.6973 5.53829C13.8981 6.02394 14.001 6.54448 14 7.07C14 8.18 13.55 9.18 12.83 9.9L14.24 11.31C14.7982 10.754 15.241 10.0933 15.5431 9.36562C15.8451 8.63798 16.0004 7.85783 16 7.07C16 5.42 15.33 3.92 14.24 2.83ZM10 5.07C9.46957 5.07 8.96087 5.28071 8.58579 5.65579C8.21072 6.03086 8.00001 6.53957 8.00001 7.07C8.00001 7.60043 8.21072 8.10914 8.58579 8.48421C8.96087 8.85929 9.46957 9.07 10 9.07C10.5304 9.07 11.0391 8.85929 11.4142 8.48421C11.7893 8.10914 12 7.60043 12 7.07C12 6.53957 11.7893 6.03086 11.4142 5.65579C11.0391 5.28071 10.5304 5.07 10 5.07Z" fill="#1B2227"/>
</svg>
