<svg width="16" height="20" viewBox="0 0 16 20" fill="none" xmlns="http://www.w3.org/2000/svg">
<path d="M8.00001 13.7C7.54536 13.7 7.10932 13.542 6.78783 13.2607C6.46634 12.9794 6.28573 12.5978 6.28573 12.2C6.28573 11.8022 6.46634 11.4206 6.78783 11.1393C7.10932 10.858 7.54536 10.7 8.00001 10.7C8.45467 10.7 8.8907 10.858 9.2122 11.1393C9.53369 11.4206 9.7143 11.8022 9.7143 12.2C9.7143 12.397 9.66996 12.592 9.58381 12.774C9.49766 12.956 9.37138 13.1214 9.2122 13.2607C9.05301 13.3999 8.86403 13.5104 8.65604 13.5858C8.44806 13.6612 8.22514 13.7 8.00001 13.7ZM8.00001 8C6.72697 8 5.50607 8.4425 4.6059 9.23015C3.70572 10.0178 3.20001 11.0861 3.20001 12.2C3.20001 15.35 8.00001 20 8.00001 20C8.00001 20 12.8 15.35 12.8 12.2C12.8 11.0861 12.2943 10.0178 11.3941 9.23015C10.494 8.4425 9.27305 8 8.00001 8Z" fill="#1B2227"/>
<path d="M2.344 0C1.59998 0.688628 1.00989 1.50693 0.607632 2.4079C0.205373 3.30886 -0.00112459 4.27473 4.60616e-06 5.25C4.60616e-06 7.2995 0.896004 9.15594 2.344 10.5L3.472 9.45297C2.87565 8.90239 2.40308 8.24733 2.08172 7.52582C1.76036 6.80431 1.59662 6.03073 1.6 5.25C1.6 3.60891 2.312 2.11634 3.472 1.04703L2.344 0ZM13.656 0L12.528 1.04703C13.1237 1.59803 13.5959 2.25317 13.9172 2.97459C14.2385 3.696 14.4026 4.46937 14.4 5.25C14.4 6.89851 13.688 8.38366 12.528 9.45297L13.656 10.5C14.4 9.81137 14.9901 8.99307 15.3924 8.0921C15.7946 7.19114 16.0011 6.22527 16 5.25C16 3.20049 15.104 1.34406 13.656 0ZM4.608 2.10149C4.16144 2.51433 3.80717 3.00501 3.56554 3.54533C3.32391 4.08566 3.19968 4.66497 3.2 5.25C3.2 6.47525 3.736 7.58911 4.608 8.39851L5.736 7.35148C5.43858 7.07568 5.20278 6.74805 5.04215 6.38741C4.88153 6.02678 4.79923 5.64024 4.8 5.25C4.8 4.42574 5.16 3.68317 5.736 3.14851L4.608 2.10149ZM11.392 2.10149L10.264 3.14851C10.5614 3.42432 10.7972 3.75195 10.9578 4.11259C11.1185 4.47322 11.2008 4.85976 11.2 5.25C11.2 6.07426 10.84 6.81683 10.264 7.35148L11.392 8.39851C11.8386 7.98567 12.1928 7.49499 12.4345 6.95467C12.6761 6.41434 12.8003 5.83502 12.8 5.25C12.8 4.02475 12.264 2.91089 11.392 2.10149ZM8 3.76485C7.57565 3.76485 7.16869 3.92132 6.86863 4.19984C6.56857 4.47836 6.4 4.85611 6.4 5.25C6.4 5.64389 6.56857 6.02164 6.86863 6.30016C7.16869 6.57868 7.57565 6.73515 8 6.73515C8.42435 6.73515 8.83131 6.57868 9.13137 6.30016C9.43143 6.02164 9.6 5.64389 9.6 5.25C9.6 4.85611 9.43143 4.47836 9.13137 4.19984C8.83131 3.92132 8.42435 3.76485 8 3.76485Z" fill="#1B2227"/>
</svg>
