<svg width="16" height="20" viewBox="0 0 16 20" fill="none" xmlns="http://www.w3.org/2000/svg">
<path d="M2.344 0C1.59998 0.706285 1.00989 1.54557 0.607632 2.46964C0.205373 3.39371 -0.00112459 4.38434 4.60616e-06 5.38462C4.60616e-06 7.48668 0.896004 9.39071 2.344 10.7692L3.472 9.69536C2.87565 9.13066 2.40308 8.4588 2.08172 7.71879C1.76036 6.97878 1.59662 6.18537 1.6 5.38462C1.6 3.70145 2.312 2.1706 3.472 1.07388L2.344 0ZM13.656 0L12.528 1.07388C13.1237 1.63901 13.5959 2.31095 13.9172 3.05086C14.2385 3.79077 14.4026 4.58397 14.4 5.38462C14.4 7.0754 13.688 8.59863 12.528 9.69536L13.656 10.7692C14.4 10.063 14.9901 9.22366 15.3924 8.2996C15.7946 7.37553 16.0011 6.3849 16 5.38462C16 3.28256 15.104 1.37852 13.656 0ZM4.608 2.15537C4.16144 2.5788 3.80717 3.08206 3.56554 3.63624C3.32391 4.19042 3.19968 4.78459 3.2 5.38462C3.2 6.64128 3.736 7.7837 4.608 8.61387L5.736 7.53999C5.43858 7.25711 5.20278 6.92108 5.04215 6.5512C4.88153 6.18131 4.79923 5.78486 4.8 5.38462C4.8 4.53923 5.16 3.77761 5.736 3.22925L4.608 2.15537ZM11.392 2.15537L10.264 3.22925C10.5614 3.51213 10.7972 3.84816 10.9578 4.21804C11.1185 4.58792 11.2008 4.98437 11.2 5.38462C11.2 6.23001 10.84 6.99163 10.264 7.53999L11.392 8.61387C11.8386 8.19044 12.1928 7.68717 12.4345 7.133C12.6761 6.57882 12.8003 5.98464 12.8 5.38462C12.8 4.12795 12.264 2.98553 11.392 2.15537ZM8 3.86139C7.57565 3.86139 7.16869 4.02187 6.86863 4.30753C6.56857 4.59319 6.4 4.98063 6.4 5.38462C6.4 5.7886 6.56857 6.17604 6.86863 6.4617C7.16869 6.74736 7.57565 6.90785 8 6.90785C8.42435 6.90785 8.83131 6.74736 9.13137 6.4617C9.43143 6.17604 9.6 5.7886 9.6 5.38462C9.6 4.98063 9.43143 4.59319 9.13137 4.30753C8.83131 4.02187 8.42435 3.86139 8 3.86139Z" fill="#727272"/>
<path d="M8.00001 10.4615C8.45467 10.4615 8.8907 10.6236 9.2122 10.9121C9.53369 11.2006 9.7143 11.5919 9.7143 12C9.7143 12.202 9.66996 12.402 9.58381 12.5887C9.49766 12.7754 9.37138 12.945 9.2122 13.0878C9.05301 13.2307 8.86403 13.344 8.65604 13.4213C8.44805 13.4986 8.22514 13.5384 8.00001 13.5384C7.54536 13.5384 7.10932 13.3763 6.78783 13.0878C6.46634 12.7993 6.28573 12.408 6.28573 12C6.28573 11.5919 6.46634 11.2006 6.78783 10.9121C7.10932 10.6236 7.54536 10.4615 8.00001 10.4615ZM8.00001 7.69226C9.27305 7.69226 10.494 8.14611 11.3941 8.95396C12.2943 9.7618 12.8 10.8575 12.8 12C12.8 15.2307 8.00001 20 8.00001 20C8.00001 20 3.20001 15.2307 3.20001 12C3.20001 10.8575 3.70573 9.7618 4.6059 8.95396C5.50607 8.14611 6.72697 7.69226 8.00001 7.69226ZM8.00001 8.92303C7.0907 8.92303 6.21863 9.24721 5.57565 9.82424C4.93266 10.4013 4.57144 11.1839 4.57144 12C4.57144 12.6153 4.57144 13.8461 8.00001 17.9753C11.4286 13.8461 11.4286 12.6153 11.4286 12C11.4286 11.1839 11.0674 10.4013 10.4244 9.82424C9.7814 9.24721 8.90933 8.92303 8.00001 8.92303Z" fill="#727272"/>
</svg>
