<svg width="66" height="60" viewBox="0 0 66 60" fill="none" xmlns="http://www.w3.org/2000/svg">
<path d="M59.4 0H6.6C4.84957 0 3.17084 0.632141 1.93309 1.75736C0.695355 2.88258 0 4.4087 0 6V60L13.2 48H59.4C61.1504 48 62.8292 47.3679 64.0669 46.2426C65.3046 45.1174 66 43.5913 66 42V6C66 4.4087 65.3046 2.88258 64.0669 1.75736C62.8292 0.632141 61.1504 0 59.4 0Z" fill="#1B2227"/>
<path d="M32.0147 13.0746V12.2816C32.0147 12.0713 32.0948 11.8696 32.2374 11.7209C32.38 11.5722 32.5734 11.4886 32.7751 11.4886C32.9767 11.4886 33.1701 11.5722 33.3127 11.7209C33.4553 11.8696 33.5354 12.0713 33.5354 12.2816V13.0746C33.5354 13.2849 33.4553 13.4866 33.3127 13.6353C33.1701 13.7841 32.9767 13.8676 32.7751 13.8676C32.5734 13.8676 32.38 13.7841 32.2374 13.6353C32.0948 13.4866 32.0147 13.2849 32.0147 13.0746ZM39.6182 16.2466C39.7181 16.2466 39.817 16.2262 39.9093 16.1864C40.0016 16.1466 40.0855 16.0882 40.1562 16.0146L40.9165 15.2216C41.0592 15.0728 41.1393 14.871 41.1393 14.6606C41.1393 14.4502 41.0592 14.2484 40.9165 14.0996C40.7738 13.9508 40.5803 13.8672 40.3786 13.8672C40.1768 13.8672 39.9833 13.9508 39.8406 14.0996L39.0803 14.8925C38.9738 15.0034 38.9013 15.1448 38.8719 15.2987C38.8425 15.4526 38.8576 15.6121 38.9152 15.7571C38.9728 15.9021 39.0703 16.026 39.1955 16.1131C39.3206 16.2002 39.4677 16.2467 39.6182 16.2466ZM25.394 16.0146C25.5366 16.1634 25.7301 16.247 25.9319 16.247C26.1337 16.247 26.3272 16.1634 26.4699 16.0146C26.6125 15.8658 26.6927 15.664 26.6927 15.4536C26.6927 15.2431 26.6125 15.0413 26.4699 14.8925L25.7095 14.0996C25.5668 13.9508 25.3733 13.8672 25.1716 13.8672C24.9698 13.8672 24.7763 13.9508 24.6336 14.0996C24.4909 14.2484 24.4108 14.4502 24.4108 14.6606C24.4108 14.871 24.4909 15.0728 24.6336 15.2216L25.394 16.0146ZM33.6628 18.6364C33.5639 18.6182 33.4625 18.6206 33.3644 18.6434C33.2664 18.6663 33.1737 18.7092 33.0917 18.7696C33.0096 18.83 32.9399 18.9068 32.8865 18.9955C32.833 19.0843 32.797 19.1831 32.7804 19.2864C32.7639 19.3898 32.7671 19.4955 32.7899 19.5975C32.8127 19.6995 32.8547 19.7958 32.9134 19.8808C32.9721 19.9658 33.0464 20.0378 33.132 20.0927C33.2175 20.1476 33.3126 20.1843 33.4119 20.2006C35.2148 20.5168 36.5768 22.2257 36.5768 24.1764C36.5768 24.3867 36.6569 24.5884 36.7995 24.7371C36.9421 24.8859 37.1355 24.9694 37.3372 24.9694C37.5388 24.9694 37.7322 24.8859 37.8748 24.7371C38.0174 24.5884 38.0975 24.3867 38.0975 24.1764C38.0975 21.4604 36.19 19.0785 33.6609 18.6364H33.6628ZM42.6596 28.9343V31.3133C42.6596 31.7339 42.4994 32.1373 42.2142 32.4347C41.929 32.7322 41.5422 32.8993 41.1389 32.8993H24.4112C24.0079 32.8993 23.6211 32.7322 23.3359 32.4347C23.0507 32.1373 22.8905 31.7339 22.8905 31.3133V28.9343C22.8905 28.5137 23.0507 28.1103 23.3359 27.8129C23.6211 27.5155 24.0079 27.3484 24.4112 27.3484V24.1764C24.4112 23.0253 24.6296 21.8856 25.0539 20.8229C25.4782 19.7603 26.1 18.7957 26.8834 17.9848C27.6668 17.174 28.5964 16.5328 29.6185 16.0984C30.6406 15.664 31.735 15.4448 32.8387 15.4536C37.4151 15.4893 41.1389 19.4473 41.1389 24.2755V27.3484C41.5422 27.3484 41.929 27.5155 42.2142 27.8129C42.4994 28.1103 42.6596 28.5137 42.6596 28.9343ZM25.9319 27.3484H39.6182V24.2755C39.6182 20.3106 36.5721 17.0683 32.8273 17.0395H32.7751C30.9601 17.0395 29.2196 17.7915 27.9362 19.1299C26.6529 20.4683 25.9319 22.2836 25.9319 24.1764V27.3484ZM41.1389 31.3133V28.9343H24.4112V31.3133H41.1389Z" fill="#EB5D00"/>
</svg>
