<svg width="72" height="69" viewBox="0 0 72 69" fill="none" xmlns="http://www.w3.org/2000/svg">
<path d="M70.5242 55.7811L43.2251 5.17137C41.4539 1.85574 38.8043 0 35.9603 0C33.1162 0 30.5062 1.89205 28.7026 5.20768L1.47189 55.7847C-0.292131 59.0567 -0.486533 62.4123 0.975083 64.9726C2.4331 67.5401 5.35273 69 8.96357 69H63.0361C66.647 69 69.5666 67.5401 71.0282 64.9762C72.4862 62.4123 72.2918 59.0967 70.5242 55.7847V55.7811ZM35.9999 15.8228C37.4219 15.8228 38.5739 17.0067 38.5739 18.4666V42.3733C38.5739 43.8332 37.4219 45.0171 35.9999 45.0171C35.6587 45.0142 35.3214 44.9435 35.0073 44.8091C34.6933 44.6746 34.4086 44.479 34.1695 44.2335C33.9304 43.9879 33.7417 43.6973 33.6141 43.3781C33.4865 43.0589 33.4225 42.7174 33.4258 42.3733V18.4629C33.4258 17.043 34.5778 15.8228 35.9999 15.8228ZM35.9999 58.0363C33.7714 58.0363 32.0038 56.1842 32.0038 53.8963C32.0038 51.6084 33.811 49.7526 35.9999 49.7526C38.2283 49.7526 39.9959 51.6047 39.9959 53.8926C39.9959 56.1805 38.1887 58.0363 35.9999 58.0363Z" fill="#D6001C"/>
</svg>
